<?xml version="1.0" encoding="utf-8"?>
<!-- Generator: Adobe Illustrator 18.1.1, SVG Export Plug-In . SVG Version: 6.00 Build 0)  -->
<svg version="1.1" id="Layer_1" xmlns="http://www.w3.org/2000/svg" xmlns:xlink="http://www.w3.org/1999/xlink" x="0px" y="0px"
	 viewBox="0 0 1920 1080" enable-background="new 0 0 1920 1080" xml:space="preserve">
<g>
	<rect fill="#BDE2D4" stroke="#000000" stroke-miterlimit="10" width="1920" height="1080"/>
</g>
<g>
	<path fill="none" stroke="#9E9995" stroke-width="7" stroke-miterlimit="10" d="M312,425c0-41.5-33.5-75-75-75s-75,33.5-75,75v160"
		/>
	<path fill="none" stroke="#9E9995" stroke-width="7" stroke-linecap="round" stroke-miterlimit="10" d="M259,446.5
		c29.2-29.5,76.6-29.7,106.1-0.5"/>
	<line fill="none" stroke="#9E9995" stroke-width="2" stroke-miterlimit="10" x1="259" y1="446.5" x2="259" y2="507.3"/>
	<line fill="none" stroke="#9E9995" stroke-width="2" stroke-miterlimit="10" x1="365" y1="446.5" x2="365" y2="507.3"/>
	<line fill="none" stroke="#9E9995" stroke-width="2" stroke-miterlimit="10" x1="312" y1="425" x2="312" y2="492"/>
	<polygon fill="#FDED1F" points="259,504.3 263.1,512.6 272.2,514 265.6,520.4 267.2,529.6 259,525.2 250.8,529.6 252.3,520.4 
		245.7,514 254.9,512.6 	"/>
	<polygon fill="#FDED1F" points="365,504.3 369.1,512.6 378.3,514 371.7,520.4 373.2,529.6 365,525.2 356.8,529.6 358.4,520.4 
		351.8,514 360.9,512.6 	"/>
	<path fill="#FDED1F" d="M313.3,499.8c-1.8-5.2,0.2-10.8,4.5-13.9c-1.2,0-2.3,0.2-3.5,0.6c-6.4,2.1-9.9,9.1-7.7,15.5
		c2.1,6.4,9.1,9.9,15.5,7.7c1.2-0.4,2.2-0.9,3.2-1.6C320.1,508.3,315.1,505,313.3,499.8z"/>
</g>
<rect x="1460.3" y="253.3" fill="#83D1DD" width="313.5" height="220"/>
<rect x="1460.3" y="474.6" fill="#83D1DD" width="313.5" height="220"/>
<polygon opacity="0.31" fill="#F2EED3" points="1564.6,253.3 1452,426.9 1460.3,466 1603,253.3 "/>
<polygon opacity="0.31" fill="#F2EED3" points="1773.8,329.2 1539.7,684.3 1616,684.3 1773.8,445 "/>
<rect x="1460.3" y="253.3" fill="none" stroke="#997B5D" stroke-width="18" stroke-miterlimit="10" width="313.5" height="440"/>
<line fill="none" stroke="#997B5D" stroke-width="18" stroke-miterlimit="10" x1="1452" y1="473.3" x2="1773.8" y2="473.3"/>
<rect x="-37" y="891" fill="#41B6CE" width="1998" height="238"/>
<g>
	<rect x="105" y="808" fill="#F0B3B2" width="551.8" height="64"/>
	<path fill="#F2EED3" d="M105,939L105,939c-6.1,0-11-5-11-11V494c0-6.1,4.9-11,11-11h0c6,0,11,4.9,11,11v434
		C116,934,111.1,939,105,939z"/>
	<path fill="#F2EED3" d="M658.5,939L658.5,939c-6,0-11-5-11-11V494c0-6.1,5-11,11-11l0,0c6,0,11,4.9,11,11v434
		C669.5,934,664.5,939,658.5,939z"/>
	<rect x="105" y="582" fill="#F2EED3" width="543" height="18"/>
	<rect x="105" y="872" fill="#F2EED3" width="543" height="18"/>
	<rect x="153" y="585" fill="#F2EED3" width="18" height="301.3"/>
	<rect x="208" y="585" fill="#F2EED3" width="18" height="301.3"/>
	<rect x="263" y="585" fill="#F2EED3" width="18" height="301.3"/>
	<rect x="318" y="585" fill="#F2EED3" width="18" height="301.3"/>
	<rect x="373" y="585" fill="#F2EED3" width="18" height="301.3"/>
	<rect x="428" y="585" fill="#F2EED3" width="18" height="301.3"/>
	<rect x="483" y="585" fill="#F2EED3" width="18" height="301.3"/>
	<rect x="538" y="585" fill="#F2EED3" width="18" height="301.3"/>
	<rect x="593" y="585" fill="#F2EED3" width="18" height="301.3"/>
</g>
<line fill="none" stroke="#997B5D" stroke-width="18" stroke-miterlimit="10" x1="1433" y1="693.3" x2="1799" y2="694.6"/>
<g>
	<ellipse fill="#F2EED3" cx="1699.3" cy="347.2" rx="52.3" ry="35.4"/>
	<ellipse fill="#F2EED3" cx="1687.9" cy="309.1" rx="52.3" ry="35.4"/>
	<ellipse fill="#F2EED3" cx="1622.5" cy="340.6" rx="47.9" ry="32.2"/>
	<ellipse fill="#F2EED3" cx="1624" cy="300.9" rx="38.5" ry="28.3"/>
</g>
<g>
	<ellipse fill="#F2EED3" cx="1534" cy="626.2" rx="52.2" ry="35.3"/>
	<ellipse fill="#F2EED3" cx="1599.2" cy="626.2" rx="47.8" ry="32.1"/>
	<ellipse fill="#F2EED3" cx="1564.6" cy="587" rx="38.4" ry="28.2"/>
</g>
<g>
	
		<rect x="222.1" y="114.1" fill="#F2EED3" stroke="#997B5D" stroke-width="18" stroke-miterlimit="10" width="133.8" height="133.8"/>
	<path fill="#F0B3B2" d="M288.9,218.8l34-36.5c3.5-3.7,5.6-8.7,5.6-14.2c0-11.5-9.3-20.9-20.9-20.9c-8.1,0-15.1,4.6-18.6,11.4
		c-3.5-6.7-10.5-11.4-18.6-11.4c-11.5,0-20.9,9.3-20.9,20.9c0,5.4,2,10.3,5.4,14h0l0,0c0.1,0.1,0.1,0.1,0.2,0.2L288.9,218.8z"/>
</g>
<g>
	<rect x="408" y="199" fill="#F2EED3" stroke="#997B5D" stroke-width="18" stroke-miterlimit="10" width="133.8" height="133.8"/>
	<polygon fill="#FDED1F" points="474.6,226.3 487.1,251.7 515.2,255.8 494.9,275.6 499.7,303.6 474.6,290.4 449.4,303.6 
		454.2,275.6 433.9,255.8 462,251.7 	"/>
</g>
</svg>
